<?xml version="1.0" encoding="iso-8859-1"?>
<!-- Generator: Adobe Illustrator 19.0.0, SVG Export Plug-In . SVG Version: 6.00 Build 0)  -->
<svg version="1.1" id="Layer_1" xmlns="http://www.w3.org/2000/svg" xmlns:xlink="http://www.w3.org/1999/xlink" x="0px" y="0px"
	 viewBox="0 0 511.999 511.999" style="enable-background:new 0 0 511.999 511.999;" xml:space="preserve">
<g>
	<path style="fill:#E6AE95;" d="M130.729,212.889c-24.542,0-44.437,19.895-44.437,44.437l0,0c0,24.542,19.895,44.437,44.437,44.437
		h11.278v-88.873L130.729,212.889L130.729,212.889z"/>
	<path style="fill:#E6AE95;" d="M381.27,212.889c24.542,0,44.437,19.895,44.437,44.437l0,0c0,24.542-19.895,44.437-44.437,44.437
		h-11.278v-88.873L381.27,212.889L381.27,212.889z"/>
</g>
<path style="fill:#FFC1A6;" d="M357.115,454.926c-39.783,0-62.605-12.128-62.605-12.128v-69.421h-77.021v69.421
	c0,0-22.822,12.128-62.605,12.128s-68.59,25.683-68.59,57.073h339.412C425.705,480.609,396.898,454.926,357.115,454.926z"/>
<path style="opacity:0.1;enable-background:new    ;" d="M217.489,423.243c12.32,3.148,25.223,4.826,38.51,4.826
	c13.288,0,26.19-1.677,38.51-4.826v-49.866h-77.021L217.489,423.243L217.489,423.243z"/>
<path style="fill:#FFC1A6;" d="M127.158,158.788v113.688c0,71.156,57.684,128.84,128.84,128.84l0,0
	c71.156,0,128.84-57.684,128.84-128.84V158.788l-128.84-21.402L127.158,158.788z"/>
<g>
	<path style="fill:#4D3332;" d="M255.999,335.877c-18.521,0-34.915-4.77-43.857-12.758c-3.306-2.954-3.59-8.027-0.638-11.333
		c2.952-3.305,8.026-3.591,11.333-0.638c4.834,4.319,16.964,8.677,33.162,8.677s28.328-4.359,33.162-8.678
		c3.307-2.954,8.379-2.668,11.333,0.638c2.954,3.306,2.668,8.379-0.638,11.333C290.914,331.106,274.52,335.877,255.999,335.877z"/>
	<path style="fill:#4D3332;" d="M208.235,260.969c-11.799,0-22.363-3.212-28.259-8.594c-3.275-2.988-3.506-8.064-0.518-11.338
		c2.989-3.275,8.065-3.505,11.339-0.518c2.321,2.118,8.767,4.398,17.439,4.398c8.671,0,15.118-2.28,17.438-4.398
		c3.276-2.988,8.351-2.757,11.339,0.517c2.989,3.273,2.757,8.35-0.516,11.338C230.599,257.755,220.035,260.969,208.235,260.969z"/>
	<path style="fill:#4D3332;" d="M176.119,218.165c-2.627,0-5.202-1.288-6.74-3.657c-2.413-3.718-1.356-8.688,2.362-11.102
		c7.514-4.879,21.157-7.79,36.494-7.79s28.979,2.912,36.493,7.79c3.719,2.414,4.775,7.384,2.362,11.102
		c-2.416,3.719-7.385,4.775-11.102,2.362c-3.988-2.589-14.116-5.202-27.752-5.202c-13.637,0-23.764,2.613-27.753,5.203
		C179.132,217.745,177.617,218.165,176.119,218.165z"/>
	<path style="fill:#4D3332;" d="M303.764,260.969c-11.799,0-22.363-3.212-28.26-8.594c-3.273-2.988-3.505-8.064-0.516-11.338
		c2.989-3.275,8.065-3.505,11.339-0.517c2.32,2.118,8.766,4.398,17.438,4.398c8.67,0,15.116-2.279,17.438-4.398
		c3.272-2.988,8.35-2.757,11.339,0.518c2.988,3.273,2.756,8.35-0.518,11.338C326.126,257.755,315.562,260.969,303.764,260.969z"/>
	<path style="fill:#4D3332;" d="M335.879,218.165c-1.498,0-3.012-0.418-4.363-1.295c-3.988-2.59-14.116-5.202-27.754-5.202
		c-13.635,0-23.763,2.613-27.754,5.202c-3.715,2.413-8.688,1.356-11.101-2.362s-1.356-8.688,2.363-11.101
		c7.513-4.878,21.156-7.79,36.492-7.79c15.338,0,28.98,2.913,36.494,7.79c3.719,2.414,4.775,7.385,2.361,11.102
		C341.08,216.875,338.507,218.165,335.879,218.165z"/>
</g>
<path style="fill:#E695A8;" d="M341.624,48.066l-95.593,63.207l9.968,40.188c65.14,24.268,128.84,35.834,128.84,35.834
	c17.905-61.276-0.263-121.358-0.263-121.358L341.624,48.066z"/>
<path style="fill:#FFA6BB;" d="M384.575,65.937c-47.146,83.188-257.416,121.358-257.416,121.358
	c-17.905-61.276,0.263-121.358,0.263-121.358C145.504,27.605,196.239,0,255.999,0c59.759,0,110.492,27.604,128.576,65.934V65.937z"
	/>
<path style="fill:#E695A8;" d="M347.863,27.797c0.443-0.438,0.816-0.917,1.136-1.421c-4.447-2.993-9.175-5.774-14.157-8.321
	c-53.135,50.784-166.038,82.105-214.965,93.777c-0.36,5.173-0.581,10.652-0.604,16.369c0.051,0.001,0.102,0.013,0.153,0.013
	c0.609,0,1.229-0.07,1.848-0.216c28.393-6.694,71.141-18.122,113.552-34.553C285.704,73.734,323.734,51.647,347.863,27.797z"/>
<g>
</g>
<g>
</g>
<g>
</g>
<g>
</g>
<g>
</g>
<g>
</g>
<g>
</g>
<g>
</g>
<g>
</g>
<g>
</g>
<g>
</g>
<g>
</g>
<g>
</g>
<g>
</g>
<g>
</g>
</svg>
